<svg width="137" height="91" viewBox="0 0 137 91" fill="none" xmlns="http://www.w3.org/2000/svg">
<path d="M68.25 0C23.0298 0 0 45.5 0 45.5C0 45.5 23.0298 91 68.25 91C113.475 91 136.5 45.5 136.5 45.5C136.5 45.5 113.475 0 68.25 0ZM68.25 83.4106C30.5669 83.4106 11.375 45.5 11.375 45.5C11.375 45.5 30.5669 7.5803 68.25 7.5803C105.938 7.5803 125.125 45.5 125.125 45.5C125.125 45.5 105.938 83.4106 68.25 83.4106Z" fill="#1982BC"/>
<path d="M68.0225 78.4874C49.8339 78.4874 35.035 63.6886 35.035 45.5C35.035 27.3113 49.8339 12.5125 68.0225 12.5125C86.2111 12.5125 101.01 27.3113 101.01 45.5C101.01 63.6886 86.2134 78.4874 68.0225 78.4874ZM68.0225 19.3375C53.5967 19.3375 41.86 31.0742 41.86 45.5C41.86 59.9257 53.5967 71.6624 68.0225 71.6624C82.4483 71.6624 94.185 59.9257 94.185 45.5C94.185 31.0742 82.4483 19.3375 68.0225 19.3375Z" fill="#1982BC"/>
<path d="M85.0805 45.4864C85.0805 54.9231 77.4388 62.5717 68.0271 62.5717C65.7841 62.5714 63.5632 62.1291 61.4913 61.2702C59.4193 60.4114 57.5368 59.1526 55.9515 57.566C54.3661 55.9794 53.1089 54.0959 52.2517 52.0233C51.3944 49.9506 50.954 47.7293 50.9555 45.4864C50.9555 36.0656 58.5949 28.4467 68.0271 28.4467C77.4388 28.4467 85.0805 36.0679 85.0805 45.4864Z" fill="#1982BC"/>
</svg>
