<svg width="72" height="82" viewBox="0 0 72 82" fill="none" xmlns="http://www.w3.org/2000/svg">
<path d="M21.8217 37.4087C17.6878 37.4087 13.7232 35.7665 10.8001 32.8434C7.87697 29.9203 6.23478 25.9557 6.23478 21.8217V9.35217C6.23478 8.52539 6.56322 7.73247 7.14784 7.14784C7.73247 6.56322 8.52539 6.23478 9.35217 6.23478H12.4696C13.2963 6.23478 14.0893 5.90634 14.6739 5.32172C15.2585 4.73709 15.587 3.94417 15.587 3.11739C15.587 2.29061 15.2585 1.49769 14.6739 0.913063C14.0893 0.328438 13.2963 0 12.4696 0H9.35217C6.87182 0 4.49306 0.985316 2.73919 2.73919C0.985316 4.49306 0 6.87182 0 9.35217V21.8217C0.00400716 25.3436 0.862806 28.8118 2.50264 31.9286C4.14247 35.0453 6.51433 37.7175 9.41452 39.7156C12.2009 42.1721 14.4607 45.1679 16.0573 48.5219C17.654 51.876 18.5544 55.5188 18.7043 59.2304C18.7043 65.0179 21.0034 70.5684 25.0958 74.6607C29.1882 78.7531 34.7386 81.0522 40.5261 81.0522C46.3136 81.0522 51.864 78.7531 55.9564 74.6607C60.0487 70.5684 62.3478 65.0179 62.3478 59.2304V55.6766C65.2865 54.9179 67.8475 53.1134 69.5509 50.6015C71.2542 48.0895 71.983 45.0426 71.6006 42.0318C71.2182 39.021 69.7508 36.253 67.4735 34.2467C65.1963 32.2403 62.2654 31.1334 59.2304 31.1334C56.1954 31.1334 53.2646 32.2403 50.9873 34.2467C48.71 36.253 47.2427 39.021 46.8602 42.0318C46.4778 45.0426 47.2066 48.0895 48.91 50.6015C50.6134 53.1134 53.1744 54.9179 56.113 55.6766V59.2304C56.113 63.3643 54.4708 67.3289 51.5477 70.2521C48.6246 73.1752 44.66 74.8174 40.5261 74.8174C36.3922 74.8174 32.4276 73.1752 29.5044 70.2521C26.5813 67.3289 24.9391 63.3643 24.9391 59.2304C25.0969 55.5142 26.0071 51.8686 27.6146 48.5142C29.2221 45.1599 31.4935 42.1666 34.2913 39.7156C37.18 37.7106 39.5397 35.0354 41.1684 31.919C42.7972 28.8027 43.6464 25.338 43.6435 21.8217V9.35217C43.6435 6.87182 42.6582 4.49306 40.9043 2.73919C39.1504 0.985316 36.7716 0 34.2913 0H31.1739C30.3471 0 29.5542 0.328438 28.9696 0.913063C28.385 1.49769 28.0565 2.29061 28.0565 3.11739C28.0565 3.94417 28.385 4.73709 28.9696 5.32172C29.5542 5.90634 30.3471 6.23478 31.1739 6.23478H34.2913C35.1181 6.23478 35.911 6.56322 36.4956 7.14784C37.0802 7.73247 37.4087 8.52539 37.4087 9.35217V21.8217C37.4087 23.8686 37.0055 25.8955 36.2222 27.7866C35.4389 29.6777 34.2908 31.396 32.8434 32.8434C31.396 34.2908 29.6777 35.4389 27.7866 36.2222C25.8955 37.0055 23.8686 37.4087 21.8217 37.4087ZM59.2304 49.8783C57.5769 49.8783 55.991 49.2214 54.8218 48.0521C53.6525 46.8829 52.9956 45.297 52.9956 43.6435C52.9956 41.9899 53.6525 40.4041 54.8218 39.2348C55.991 38.0656 57.5769 37.4087 59.2304 37.4087C60.884 37.4087 62.4698 38.0656 63.6391 39.2348C64.8083 40.4041 65.4652 41.9899 65.4652 43.6435C65.4652 45.297 64.8083 46.8829 63.6391 48.0521C62.4698 49.2214 60.884 49.8783 59.2304 49.8783Z" fill="#1982BC"/>
</svg>
