<svg width="92" height="82" viewBox="0 0 92 82" fill="none" xmlns="http://www.w3.org/2000/svg">
<path d="M48.7738 2.95079C48.7738 2.16819 48.463 1.41765 47.9096 0.864266C47.3562 0.310886 46.6057 0 45.8231 0C45.0405 0 44.2899 0.310886 43.7365 0.864266C43.1832 1.41765 42.8723 2.16819 42.8723 2.95079V33.8928L39.9215 35.9996V21.9539C39.9215 16.3474 35.3773 11.8032 29.7708 11.8032C26.6783 11.8032 23.7335 13.3966 21.2548 15.2969C18.7112 17.2562 16.2562 19.8588 14.0785 22.5499C9.73491 27.9086 6.12905 34.0344 4.75398 37.1858C3.7153 39.576 2.43466 44.0317 1.4727 49.0539C0.498942 54.1116 -0.197444 60.0131 0.0504222 65.3364C0.286485 70.453 1.42549 75.9002 4.99594 79.087C8.95 82.628 14.5683 82.3683 21.1722 79.0634L31.7655 73.7697C34.2162 72.5444 36.2773 70.6609 37.7178 68.3302C39.1583 65.9995 39.9214 63.3137 39.9215 60.5738V56.065C39.9215 55.2824 39.6106 54.5318 39.0572 53.9785C38.5038 53.4251 37.7533 53.1142 36.9707 53.1142C36.1881 53.1142 35.4376 53.4251 34.8842 53.9785C34.3308 54.5318 34.0199 55.2824 34.0199 56.065V60.5738C34.0199 62.2187 33.5615 63.831 32.6963 65.2299C31.8311 66.6288 30.5933 67.759 29.1216 68.4937L18.5342 73.7874C12.7624 76.6733 10.1834 75.8117 8.9264 74.6845C7.27395 73.2091 6.17036 69.9573 5.9461 65.0649C5.72774 60.3731 6.34741 54.9732 7.26805 50.1634C8.1946 45.3241 9.37492 41.3642 10.1657 39.5406C11.287 36.9557 14.5919 31.2784 18.664 26.262C20.6823 23.7716 22.8128 21.5467 24.8548 19.9768C26.9675 18.348 28.6259 17.7047 29.7708 17.7047C30.8977 17.7047 31.9785 18.1524 32.7754 18.9493C33.5722 19.7461 34.0199 20.8269 34.0199 21.9539V40.2133L23.4561 47.7674C22.8637 48.2377 22.4745 48.9175 22.3689 49.6665C22.2633 50.4155 22.4493 51.1764 22.8886 51.7922C23.3279 52.4079 23.9869 52.8315 24.7294 52.9754C25.472 53.1193 26.2415 52.9725 26.879 52.5653L45.8231 39.033L64.7671 52.5653C65.0817 52.8049 65.4412 52.9787 65.8242 53.0766C66.2073 53.1745 66.6061 53.1944 66.997 53.1351C67.388 53.0758 67.763 52.9386 68.0998 52.7316C68.4366 52.5246 68.7284 52.252 68.9579 51.93C69.1873 51.608 69.3497 51.2432 69.4354 50.8572C69.5211 50.4712 69.5283 50.072 69.4567 49.6831C69.3851 49.2943 69.236 48.9238 69.0184 48.5937C68.8009 48.2636 68.5191 47.9806 68.19 47.7615L57.6262 40.2133V21.9539C57.6262 20.8269 58.0739 19.7461 58.8708 18.9493C59.6676 18.1524 60.7484 17.7047 61.8754 17.7047C63.0203 17.7047 64.6786 18.3539 66.7914 19.9768C68.8333 21.5467 70.9579 23.7716 72.988 26.2679C77.0483 31.2843 80.3532 36.9557 81.4804 39.5406C82.2712 41.3642 83.4515 45.3241 84.3781 50.1634C85.2987 54.9673 85.9125 60.3731 85.7 65.0649C85.4758 69.9573 84.3781 73.2091 82.7197 74.6845C81.4627 75.8058 78.8837 76.6733 73.112 73.7874L62.5186 68.4937C61.0481 67.7582 59.8114 66.6276 58.9473 65.2288C58.0832 63.8299 57.6257 62.218 57.6262 60.5738V56.065C57.6262 55.2824 57.3153 54.5318 56.762 53.9785C56.2086 53.4251 55.458 53.1142 54.6754 53.1142C53.8928 53.1142 53.1423 53.4251 52.5889 53.9785C52.0355 54.5318 51.7246 55.2824 51.7246 56.065V60.5738C51.7247 63.3137 52.4878 65.9995 53.9283 68.3302C55.3688 70.6609 57.4299 72.5444 59.8806 73.7697L70.474 79.0634C77.0837 82.3683 82.6902 82.6221 86.6502 79.087C90.2206 75.9002 91.3596 70.453 91.5957 65.3364C91.8436 60.0131 91.1472 54.1116 90.1793 49.0539C89.2115 44.0258 87.9367 39.576 86.8862 37.1799C85.5171 34.0344 81.9112 27.9086 77.5676 22.5499C75.3841 19.8588 72.9349 17.2562 70.3913 15.2969C67.9127 13.3966 64.9678 11.8032 61.8754 11.8032C56.2689 11.8032 51.7246 16.3474 51.7246 21.9539V35.9996L48.7738 33.8928V2.95079Z" fill="#1982BC"/>
</svg>
